<svg width="40" height="40" viewBox="0 0 40 40" fill="none" xmlns="http://www.w3.org/2000/svg">
<rect width="40" height="40" fill="white"/>
<rect x="21" y="7" width="5" height="12" rx="2.5" fill="#574B4B"/>
<rect x="21" y="7" width="5" height="12" rx="2.5" stroke="#574B4B"/>
<path d="M14 9.5C14 8.11929 15.1193 7 16.5 7C17.8807 7 19 8.11929 19 9.5V12H16.5C15.1193 12 14 10.8807 14 9.5Z" fill="#574B4B"/>
<path d="M14 9.5C14 8.11929 15.1193 7 16.5 7C17.8807 7 19 8.11929 19 9.5V12H16.5C15.1193 12 14 10.8807 14 9.5Z" stroke="#574B4B"/>
<path d="M28 16.5C28 15.1193 29.1193 14 30.5 14C31.8807 14 33 15.1193 33 16.5C33 17.8807 31.8807 19 30.5 19H28V16.5Z" fill="#574B4B"/>
<path d="M28 16.5C28 15.1193 29.1193 14 30.5 14C31.8807 14 33 15.1193 33 16.5C33 17.8807 31.8807 19 30.5 19H28V16.5Z" stroke="#574B4B"/>
<path d="M7 23.5C7 22.1193 8.11929 21 9.5 21H12V23.5C12 24.8807 10.8807 26 9.5 26C8.11929 26 7 24.8807 7 23.5Z" fill="#574B4B"/>
<path d="M7 23.5C7 22.1193 8.11929 21 9.5 21H12V23.5C12 24.8807 10.8807 26 9.5 26C8.11929 26 7 24.8807 7 23.5Z" stroke="#574B4B"/>
<path d="M21 28H23.5C24.8807 28 26 29.1193 26 30.5C26 31.8807 24.8807 33 23.5 33C22.1193 33 21 31.8807 21 30.5V28Z" fill="#574B4B"/>
<path d="M21 28H23.5C24.8807 28 26 29.1193 26 30.5C26 31.8807 24.8807 33 23.5 33C22.1193 33 21 31.8807 21 30.5V28Z" stroke="#574B4B"/>
<rect x="14" y="21" width="5" height="12" rx="2.5" fill="#574B4B"/>
<rect x="14" y="21" width="5" height="12" rx="2.5" stroke="#574B4B"/>
<rect x="21" y="26" width="5" height="12" rx="2.5" transform="rotate(-90 21 26)" fill="#574B4B"/>
<rect x="21" y="26" width="5" height="12" rx="2.5" transform="rotate(-90 21 26)" stroke="#574B4B"/>
<rect x="7" y="19" width="5" height="12" rx="2.5" transform="rotate(-90 7 19)" fill="#574B4B"/>
<rect x="7" y="19" width="5" height="12" rx="2.5" transform="rotate(-90 7 19)" stroke="#574B4B"/>
</svg>
