<svg width="40" height="40" viewBox="0 0 40 40" fill="none" xmlns="http://www.w3.org/2000/svg">
<rect width="40" height="40" fill="white"/>
<path fill-rule="evenodd" clip-rule="evenodd" d="M12.2 7C10.8209 7 9.49823 7.54786 8.52304 8.52304C7.54786 9.49823 7 10.8209 7 12.2V27.8C7 29.1791 7.54786 30.5018 8.52304 31.477C9.49823 32.4521 10.8209 33 12.2 33H27.8C29.1791 33 30.5018 32.4521 31.477 31.477C32.4521 30.5018 33 29.1791 33 27.8V12.2C33 10.8209 32.4521 9.49823 31.477 8.52304C30.5018 7.54786 29.1791 7 27.8 7H12.2ZM16.1 18.7C16.1 18.3552 15.963 18.0246 15.7192 17.7808C15.4754 17.537 15.1448 17.4 14.8 17.4C14.4552 17.4 14.1246 17.537 13.8808 17.7808C13.637 18.0246 13.5 18.3552 13.5 18.7V26.5C13.5 26.8448 13.637 27.1754 13.8808 27.4192C14.1246 27.663 14.4552 27.8 14.8 27.8C15.1448 27.8 15.4754 27.663 15.7192 27.4192C15.963 27.1754 16.1 26.8448 16.1 26.5V18.7ZM16.75 14.15C16.75 14.6672 16.5446 15.1632 16.1789 15.5289C15.8132 15.8946 15.3172 16.1 14.8 16.1C14.2828 16.1 13.7868 15.8946 13.4211 15.5289C13.0554 15.1632 12.85 14.6672 12.85 14.15C12.85 13.6328 13.0554 13.1368 13.4211 12.7711C13.7868 12.4054 14.2828 12.2 14.8 12.2C15.3172 12.2 15.8132 12.4054 16.1789 12.7711C16.5446 13.1368 16.75 13.6328 16.75 14.15ZM20 17.4C20.442 17.4 20.832 17.621 21.066 17.9564C21.736 17.5912 22.4869 17.3999 23.25 17.4C26.058 17.4 27.8 19.9038 27.8 22.0423V26.5C27.8 26.8448 27.663 27.1754 27.4192 27.4192C27.1754 27.663 26.8448 27.8 26.5 27.8C26.1552 27.8 25.8246 27.663 25.5808 27.4192C25.337 27.1754 25.2 26.8448 25.2 26.5V22.041C25.2 21.0426 24.342 19.9987 23.25 19.9987C22.5688 19.9987 21.8161 20.3692 21.3 21.2506V26.5C21.3 26.8448 21.163 27.1754 20.9192 27.4192C20.6754 27.663 20.3448 27.8 20 27.8C19.6552 27.8 19.3246 27.663 19.0808 27.4192C18.837 27.1754 18.7 26.8448 18.7 26.5V18.7C18.7 18.3552 18.837 18.0246 19.0808 17.7808C19.3246 17.537 19.6552 17.4 20 17.4Z" fill="#574B4B"/>
</svg>
