<svg width="40" height="40" viewBox="0 0 40 40" fill="none" xmlns="http://www.w3.org/2000/svg">
<rect width="40" height="40" fill="white"/>
<g clip-path="url(#clip0_229_153)">
<path d="M34 11.3169C32.9698 11.7742 31.8627 12.0822 30.7007 12.221C31.8872 11.5105 32.7983 10.3847 33.2265 9.04305C32.117 9.70105 30.8873 10.1794 29.5783 10.4372C28.5318 9.32071 27.0373 8.62305 25.3853 8.62305C21.6765 8.62305 18.9512 12.0834 19.7888 15.6755C15.016 15.4364 10.7833 13.1497 7.9495 9.67421C6.4445 12.256 7.169 15.6335 9.72633 17.3439C8.786 17.3135 7.89933 17.0557 7.12583 16.6252C7.06283 19.2864 8.97033 21.776 11.733 22.3302C10.9245 22.5495 10.039 22.6009 9.13833 22.4282C9.86867 24.7102 11.9897 26.3704 14.505 26.417C12.09 28.3105 9.04733 29.1564 6 28.797C8.54217 30.4269 11.5627 31.3777 14.806 31.3777C25.4717 31.3777 31.4975 22.3699 31.1335 14.2907C32.2558 13.4799 33.23 12.4684 34 11.3169V11.3169Z" fill="#574B4B"/>
</g>
<defs>
<clipPath id="clip0_229_153">
<rect width="28" height="28" fill="white" transform="translate(6 6)"/>
</clipPath>
</defs>
</svg>
