<svg width="477" height="300" viewBox="0 0 477 300" fill="none" xmlns="http://www.w3.org/2000/svg">
<circle cx="238" cy="150" r="149" stroke="#574B4B" stroke-width="2"/>
<path d="M320 150C320 191.286 310.794 228.613 295.96 255.584C281.106 282.591 260.749 299 238.5 299C216.251 299 195.894 282.591 181.04 255.584C166.206 228.613 157 191.286 157 150C157 108.714 166.206 71.3866 181.04 44.4159C195.894 17.4092 216.251 1 238.5 1C260.749 1 281.106 17.4092 295.96 44.4159C310.794 71.3866 320 108.714 320 150Z" stroke="#574B4B" stroke-width="2"/>
<path d="M238.5 299.5V0.5" stroke="#574B4B" stroke-width="2"/>
<path d="M118 61L358 61" stroke="#574B4B" stroke-width="2"/>
<path d="M89 150L388 150" stroke="#574B4B" stroke-width="2"/>
<path d="M118 239L358 239" stroke="#574B4B" stroke-width="2"/>
</svg>
