<svg width="24" height="48" viewBox="0 0 24 48" fill="none" xmlns="http://www.w3.org/2000/svg">
<path d="M12.9848 1.23461C13.6728 1.2501 14.2739 1.58399 14.8 2.21809C15.0475 2.51365 15.5011 2.51365 15.749 2.21809C16.2758 1.58439 16.8991 1.25049 17.4839 1.23694C18.2652 1.22144 19.0325 1.5751 19.5276 2.17278C20.463 3.30074 20.647 5.33862 19.2646 6.53708L15.2733 9.98802L11.2855 6.53708C9.90338 5.34129 10.0866 3.30392 11.0221 2.17278C11.5133 1.57549 12.3035 1.21872 12.9848 1.23461ZM13.0077 0.000935023C11.9057 -0.0219188 10.8064 0.492093 10.0666 1.38533C8.724 3.01178 8.54392 5.79456 10.4779 7.46911L14.5722 11.0133C14.9739 11.3608 15.5746 11.3608 15.9763 11.0133L20.0706 7.46911C22.0051 5.79456 21.8249 3.01188 20.4789 1.38533C19.7429 0.491717 18.6212 -0.0250454 17.4549 0.000935023C16.6089 0.0164291 15.9055 0.331729 15.2671 0.935614C14.6211 0.331342 13.9036 0.0199146 13.0077 0.000935023Z" fill="white"/>
<path d="M19.775 15.3929C20.4079 16.0298 20.6493 17.0643 19.7076 18.0831L9.58419 28.7609C9.0055 29.3527 9.8902 30.22 10.4689 29.632L14.3919 25.49C14.7843 25.0787 15.5839 25.153 16.211 25.3618C16.9562 25.6062 17.5895 26.2422 17.8343 27.0041C18.0788 27.7657 17.9083 28.4977 17.4451 28.9668L13.6176 32.852C13.0389 33.44 13.9225 34.3081 14.5012 33.7166L17.4578 30.7216C17.9164 30.2525 18.6245 30.0855 19.3693 30.33C20.1111 30.5744 20.7483 31.2166 20.9888 31.9785C21.2332 32.7393 21.0628 33.469 20.603 33.9358L17.6464 36.937C17.0646 37.5258 17.9443 38.3931 18.5238 37.8082L19.9368 36.3781C20.3645 35.9442 20.7921 35.7839 21.2775 35.9191C21.9259 36.0988 22.4887 36.6829 22.6781 37.3457C22.8749 38.0239 22.7428 38.6088 22.3764 38.9776L18.7899 42.6322C16.1737 45.296 15.0427 45.9355 12.6996 46.1571C9.98772 46.4143 7.01832 44.9582 4.73334 42.6419C2.44567 40.3213 1.00892 37.3104 1.26267 34.5467C1.44279 32.5859 2.06953 30.976 3.4253 29.5908L17.2296 15.5188C18.0818 14.6476 19.1002 14.7186 19.775 15.3929ZM10.5557 13.3465C10.8063 13.3624 11.0863 13.4422 11.385 13.5879C13.0022 14.363 13.5766 16.5154 13.2749 17.7852L8.73745 22.4129C9.52493 19.9869 9.47342 17.3831 9.38665 15.1272C9.33436 13.8535 9.81 13.302 10.5557 13.3465ZM10.5777 12.0292C9.90335 11.9618 9.1612 12.1605 8.6886 12.7388C8.21526 13.3175 8.04521 14.1584 8.15483 15.2488C8.51197 18.7776 8.00105 23.1318 5.24701 25.9553L2.54446 28.7264C0.982261 30.3269 0.233886 32.2675 0.0351658 34.4336C-0.264253 37.692 1.37732 40.9961 3.85518 43.5085C6.33194 46.0247 9.59763 47.6892 12.8173 47.384C15.3777 47.1426 16.9914 46.2269 19.6746 43.4957L23.2637 39.845C24.0392 39.0548 24.138 37.8335 23.8556 36.9557C23.5287 35.944 22.7628 35.0696 21.5609 34.7195C22.3062 33.8972 22.5254 32.7107 22.1679 31.5986C21.8018 30.4509 20.8931 29.5317 19.7555 29.159C19.4692 29.0629 19.1768 29.0207 18.8874 29.0048C19.2182 28.2817 19.2662 27.4341 19.009 26.6246C18.643 25.4769 17.7374 24.5611 16.5997 24.185C16.3293 24.0955 16.0532 24.0467 15.7805 24.0246L20.6134 18.9239C21.9466 17.4818 21.7344 15.5435 20.658 14.5283C19.3209 13.2678 17.4612 13.5123 16.3456 14.6499L14.5847 16.4464C14.5006 15.7004 14.2276 15.0675 13.9343 14.4693C13.2836 13.1404 11.9336 12.1669 10.5775 12.0287L10.5777 12.0292Z" fill="white"/>
</svg>
