<svg width="230" height="90" viewBox="0 0 230 90" fill="none" xmlns="http://www.w3.org/2000/svg">
<mask id="mask0_28_477" style="mask-type:alpha" maskUnits="userSpaceOnUse" x="0" y="0" width="230" height="90">
<rect y="1.52588e-05" width="2" height="90" fill="#D9D9D9"/>
<rect x="4" y="1.52588e-05" width="2" height="90" fill="#D9D9D9"/>
<rect x="8" y="1.52588e-05" width="2" height="90" fill="#D9D9D9"/>
<rect x="12" y="1.52588e-05" width="2" height="90" fill="#D9D9D9"/>
<rect x="16" y="1.52588e-05" width="2" height="90" fill="#D9D9D9"/>
<rect x="20" y="1.52588e-05" width="2" height="90" fill="#D9D9D9"/>
<rect x="24" y="1.52588e-05" width="2" height="90" fill="#D9D9D9"/>
<rect x="28" y="1.52588e-05" width="2" height="90" fill="#D9D9D9"/>
<rect x="32" y="1.52588e-05" width="2" height="90" fill="#D9D9D9"/>
<rect x="36" y="1.52588e-05" width="2" height="90" fill="#D9D9D9"/>
<rect x="40" y="1.52588e-05" width="2" height="90" fill="#D9D9D9"/>
<rect x="44" y="1.52588e-05" width="2" height="90" fill="#D9D9D9"/>
<rect x="48" y="1.52588e-05" width="2" height="90" fill="#D9D9D9"/>
<rect x="52" y="1.52588e-05" width="2" height="90" fill="#D9D9D9"/>
<rect x="56" y="1.52588e-05" width="2" height="90" fill="#D9D9D9"/>
<rect x="60" y="1.52588e-05" width="2" height="90" fill="#D9D9D9"/>
<rect x="64" y="1.52588e-05" width="2" height="90" fill="#D9D9D9"/>
<rect x="68" y="1.52588e-05" width="2" height="90" fill="#D9D9D9"/>
<rect x="72" y="1.52588e-05" width="2" height="90" fill="#D9D9D9"/>
<rect x="76" y="1.52588e-05" width="2" height="90" fill="#D9D9D9"/>
<rect x="80" y="1.52588e-05" width="2" height="90" fill="#D9D9D9"/>
<rect x="84" y="1.52588e-05" width="2" height="90" fill="#D9D9D9"/>
<rect x="88" y="1.52588e-05" width="2" height="90" fill="#D9D9D9"/>
<rect x="92" y="1.52588e-05" width="2" height="90" fill="#D9D9D9"/>
<rect x="96" y="1.52588e-05" width="2" height="90" fill="#D9D9D9"/>
<rect x="100" y="1.52588e-05" width="2" height="90" fill="#D9D9D9"/>
<rect x="104" y="1.52588e-05" width="2" height="90" fill="#D9D9D9"/>
<rect x="108" y="1.52588e-05" width="2" height="90" fill="#D9D9D9"/>
<rect x="112" y="1.52588e-05" width="2" height="90" fill="#D9D9D9"/>
<rect x="116" y="1.52588e-05" width="2" height="90" fill="#D9D9D9"/>
<rect x="120" y="1.52588e-05" width="2" height="90" fill="#D9D9D9"/>
<rect x="124" y="1.52588e-05" width="2" height="90" fill="#D9D9D9"/>
<rect x="128" y="1.52588e-05" width="2" height="90" fill="#D9D9D9"/>
<rect x="132" y="1.52588e-05" width="2" height="90" fill="#D9D9D9"/>
<rect x="136" y="1.52588e-05" width="2" height="90" fill="#D9D9D9"/>
<rect x="140" y="1.52588e-05" width="2" height="90" fill="#D9D9D9"/>
<rect x="144" y="1.52588e-05" width="2" height="90" fill="#D9D9D9"/>
<rect x="148" y="1.52588e-05" width="2" height="90" fill="#D9D9D9"/>
<rect x="152" y="1.52588e-05" width="2" height="90" fill="#D9D9D9"/>
<rect x="156" y="1.52588e-05" width="2" height="90" fill="#D9D9D9"/>
<rect x="160" y="1.52588e-05" width="2" height="90" fill="#D9D9D9"/>
<rect x="164" y="1.52588e-05" width="2" height="90" fill="#D9D9D9"/>
<rect x="168" y="1.52588e-05" width="2" height="90" fill="#D9D9D9"/>
<rect x="172" y="1.52588e-05" width="2" height="90" fill="#D9D9D9"/>
<rect x="176" y="1.52588e-05" width="2" height="90" fill="#D9D9D9"/>
<rect x="180" y="1.52588e-05" width="2" height="90" fill="#D9D9D9"/>
<rect x="184" y="1.52588e-05" width="2" height="90" fill="#D9D9D9"/>
<rect x="188" y="1.52588e-05" width="2" height="90" fill="#D9D9D9"/>
<rect x="192" y="1.52588e-05" width="2" height="90" fill="#D9D9D9"/>
<rect x="196" y="1.52588e-05" width="2" height="90" fill="#D9D9D9"/>
<rect x="200" y="1.52588e-05" width="2" height="90" fill="#D9D9D9"/>
<rect x="204" y="1.52588e-05" width="2" height="90" fill="#D9D9D9"/>
<rect x="208" y="1.52588e-05" width="2" height="90" fill="#D9D9D9"/>
<rect x="212" y="1.52588e-05" width="2" height="90" fill="#D9D9D9"/>
<rect x="216" y="1.52588e-05" width="2" height="90" fill="#D9D9D9"/>
<rect x="220" y="1.52588e-05" width="2" height="90" fill="#D9D9D9"/>
<rect x="224" y="1.52588e-05" width="2" height="90" fill="#D9D9D9"/>
<rect x="228" y="1.52588e-05" width="2" height="90" fill="#D9D9D9"/>
</mask>
<g mask="url(#mask0_28_477)">
<path d="M34.3789 87.002L0.00390625 14.9805H94.7793L60.4043 87.002L47.416 59.2188L34.3789 87.002Z" fill="black"/>
<path d="M129.791 85.6836C124.908 85.6836 120.253 84.7396 115.826 82.8516C111.399 80.9636 107.59 78.4245 104.4 75.2344C101.21 72.0443 98.6712 68.2357 96.7832 63.8086C94.9277 59.349 94 54.6777 94 49.7949C94 43.3822 95.5788 37.4577 98.7363 32.0215C101.926 26.5527 106.272 22.2233 111.773 19.0332C117.275 15.8106 123.281 14.1992 129.791 14.1992C136.171 14.1992 142.079 15.8106 147.516 19.0332C152.952 22.2233 157.249 26.5527 160.406 32.0215C163.596 37.4902 165.191 43.4147 165.191 49.7949C165.191 56.3054 163.596 62.3275 160.406 67.8613C157.249 73.3626 152.952 77.7083 147.516 80.8985C142.079 84.0886 136.171 85.6836 129.791 85.6836Z" fill="black"/>
<path d="M229.773 14.9805L206.58 49.9902L229.773 85H162L185.193 49.9902L162 14.9805H229.773Z" fill="black"/>
</g>
</svg>
